<svg xmlns="http://www.w3.org/2000/svg" width="63" height="47" viewBox="0 0 63 47">
  <g id="Group_355" data-name="Group 355" transform="translate(-531 -245)">
    <path id="ic_markunread_24px" d="M45.981,4H6.887A4.88,4.88,0,0,0,2.024,8.887L2,38.208a4.9,4.9,0,0,0,4.887,4.887H45.981a4.9,4.9,0,0,0,4.887-4.887V8.887A4.9,4.9,0,0,0,45.981,4Zm0,9.774L26.434,25.991,6.887,13.774V8.887L26.434,21.1,45.981,8.887Z" transform="translate(529 248.905)" fill="#ff631c"/>
    <circle id="Ellipse_33" data-name="Ellipse 33" cx="12" cy="12" r="12" transform="translate(570 245)" fill="#5f7beb"/>
    <path id="Path_127" data-name="Path 127" d="M742.343,457.915l3.984,4.781,5.711-8.367" transform="translate(-165.117 -202.212)" fill="none" stroke="#fff" stroke-width="1"/>
  </g>
</svg>
