<svg xmlns="http://www.w3.org/2000/svg" width="64.539" height="56.653" viewBox="0 0 64.539 56.653">
  <g id="Group_345" data-name="Group 345" transform="translate(-706.404 -448.9)">
    <path id="ic_perm_phone_msg_24px" d="M47.57,35.772a29.784,29.784,0,0,1-9.36-1.494,2.676,2.676,0,0,0-2.674.629l-5.768,5.768A39.522,39.522,0,0,1,12.491,23.424l5.768-5.794a2.574,2.574,0,0,0,.655-2.648,29.784,29.784,0,0,1-1.494-9.36A2.629,2.629,0,0,0,14.8,3H5.622A2.629,2.629,0,0,0,3,5.622a44.566,44.566,0,0,0,44.57,44.57,2.629,2.629,0,0,0,2.622-2.622V38.394A2.629,2.629,0,0,0,47.57,35.772ZM26.6,3V29.218l7.865-7.865H50.192V3Z" transform="translate(703.404 455.361)" fill="#ff631c"/>
    <circle id="Ellipse_33" data-name="Ellipse 33" cx="12" cy="12" r="12" transform="translate(746.943 448.9)" fill="#5f7beb"/>
    <path id="Path_127" data-name="Path 127" d="M742.343,457.915l3.984,4.781,5.711-8.367" transform="translate(11.826 1.688)" fill="none" stroke="#fff" stroke-width="1"/>
  </g>
</svg>
