<svg xmlns="http://www.w3.org/2000/svg" width="20.162" height="21.995" viewBox="0 0 20.162 21.995">
  <path id="ic_pan_tool_24px" d="M21.162,5.041V18.329A3.677,3.677,0,0,1,17.5,22h-6.69A3.66,3.66,0,0,1,8.194,20.9L1,13.591s1.155-1.127,1.191-1.146a1.086,1.086,0,0,1,.724-.266,1.12,1.12,0,0,1,.55.147c.037.009,3.95,2.254,3.95,2.254V3.666a1.375,1.375,0,0,1,2.749,0v6.415h.916V1.375a1.375,1.375,0,0,1,2.749,0v8.706h.916V2.291a1.375,1.375,0,1,1,2.749,0v7.79h.916V5.041a1.375,1.375,0,0,1,2.749,0Z" transform="translate(-1)" fill="#ffd6c4"/>
</svg>
