<svg xmlns="http://www.w3.org/2000/svg" width="74" height="73" viewBox="0 0 74 73">
  <g id="Group_315" data-name="Group 315" transform="translate(0.228 -0.5)">
    <ellipse id="Ellipse_28" data-name="Ellipse 28" cx="37" cy="36.5" rx="37" ry="36.5" transform="translate(-0.228 0.5)" fill="#fff2ec"/>
    <path id="Path_122" data-name="Path 122" d="M11278.725,580.739s-8.152.362-8.062,6.613,7.066,7.247,8.063,7.428C11278.814,594.961,11278.725,580.739,11278.725,580.739Z" transform="translate(-11251.206 -552.232)" fill="#ff813f"/>
    <path id="Path_123" data-name="Path 123" d="M11282.623,580.207s-1.268,17.393,1,19.929,6.884,6.884,7.608,4.982-7.608-9.421-5.072-10.689,14.855,6.613,17.03,4.258v-22.1s-1.177-1.993-3.985-.544-5.034,3.793-15.581,4.167Z" transform="translate(-11252.389 -551.7)" fill="#ff813f"/>
    <path id="Path_124" data-name="Path 124" d="M11308.8,584.588s4.959,3.838,0,6.912C11308.8,591.524,11308.8,584.588,11308.8,584.588Z" transform="translate(-11255.091 -552.624)" fill="#ff813f"/>
  </g>
</svg>
