<svg xmlns="http://www.w3.org/2000/svg" width="17.142" height="17.148" viewBox="0 0 17.142 17.148">
  <g id="Group_162" data-name="Group 162" transform="translate(-213.551 -445.705)">
    <path id="Path_18" data-name="Path 18" d="M436.742,1142.169l6.292-6.292s2.75.251,1.75,3.483c-.038.038,1.424,1.385,1.424,1.385s3.848-.385,3.232,1.847c-1.5,1.77-6.195,6.041-6.195,6.041l-1.27-1.462h-1.116v-1.424l-1.231-1.154h-1.347v-1.231Z" transform="translate(-218.815 -690.173)" fill="#006e5d"/>
    <path id="Path_19" data-name="Path 19" d="M435.193,1143.953l-2.963,3s-1.077,2.463,1.154,2.424,3.194.731,3.194,1.462-.308,2.693.923,2.847,4.387-3,4.387-3l-1.732-1.539v-1.193h-1.5l-.846-1v-1.616h-1.578Z" transform="translate(-218.42 -690.84)" fill="#006e5d"/>
  </g>
</svg>
